<?xml version="1.0" encoding="UTF-8"?>
<svg width="512" height="512" viewBox="0 0 512 512" fill="none" xmlns="http://www.w3.org/2000/svg">
    <!-- Background Circle -->
    <circle cx="256" cy="256" r="248" fill="#FFF8F0" stroke="#800020" stroke-width="16"/>
    
    <!-- Autumn Leaves Border -->
    <g transform="rotate(45, 256, 256)">
        <path d="M256 40 C356 40 456 140 456 256" stroke="#D35400" stroke-width="8" fill="none">
            <animate attributeName="d" dur="10s" repeatCount="indefinite"
                values="M256 40 C356 40 456 140 456 256;
                        M256 40 C376 60 436 160 456 256;
                        M256 40 C356 40 456 140 456 256"/>
        </path>
        <path d="M256 472 C156 472 56 372 56 256" stroke="#2C5F2D" stroke-width="8" fill="none">
            <animate attributeName="d" dur="10s" repeatCount="indefinite"
                values="M256 472 C156 472 56 372 56 256;
                        M256 472 C136 452 76 352 56 256;
                        M256 472 C156 472 56 372 56 256"/>
        </path>
    </g>
    
    <!-- Interlocking Hearts -->
    <g transform="translate(256, 256) scale(0.8)">
        <!-- Left Heart -->
        <path d="M-50 0 C-50 -35 -25 -60 0 -60 C25 -60 50 -35 50 0 L0 50 Z" 
              fill="#800020" transform="translate(-25, 0)"/>
        <!-- Right Heart -->
        <path d="M-50 0 C-50 -35 -25 -60 0 -60 C25 -60 50 -35 50 0 L0 50 Z" 
              fill="#D35400" transform="translate(25, 0)"/>
    </g>
    
    <!-- Autumn Leaves -->
    <g transform="translate(256, 256)">
        <!-- Leaf 1 -->
        <path d="M-120 -120 C-100 -140 -80 -140 -60 -120 C-40 -100 -60 -80 -80 -60" 
              stroke="#D35400" fill="#D35400" opacity="0.8">
            <animateTransform attributeName="transform" type="rotate"
                from="0" to="360" dur="20s" repeatCount="indefinite"/>
        </path>
        <!-- Leaf 2 -->
        <path d="M120 120 C100 140 80 140 60 120 C40 100 60 80 80 60" 
              stroke="#2C5F2D" fill="#2C5F2D" opacity="0.8">
            <animateTransform attributeName="transform" type="rotate"
                from="0" to="-360" dur="25s" repeatCount="indefinite"/>
        </path>
    </g>
</svg> 